#define bat_low_02_width 8
#define bat_low_02_height 8
static unsigned char bat_low_02_bits[] = {
 0x00, 0x7F, 0x41, 0xC5, 0xC5, 0x41, 0x7F, 0x00 };
