#define bug_02_width 8
#define bug_02_height 8
static unsigned char bug_02_bits[] = {
 0xC3, 0x24, 0x24, 0xDB, 0x3C, 0x7E, 0x99, 0x42 };
