#define bug_width 8
#define bug_height 8
static unsigned char bug_bits[] = {
 0xC3, 0x24, 0x18, 0xDB, 0x3C, 0x7E, 0xBD, 0x99 };
