#define cpu_width 8
#define cpu_height 8
static unsigned char cpu_bits[] = {
 0xDB, 0x81, 0x3C, 0xBD, 0xBD, 0x3C, 0x81, 0xDB };
