#define fox_width 8
#define fox_height 8
static unsigned char fox_bits[] = {
 0x81, 0xC3, 0xBD, 0xFF, 0x99, 0xDB, 0x7E, 0x18 };
