#define info_02_width 8
#define info_02_height 8
static unsigned char info_02_bits[] = {
 0xFF, 0xE7, 0xFF, 0xE7, 0xE7, 0xE7, 0xE7, 0xFF };
