#define next_width 8
#define next_height 8
static unsigned char next_bits[] = {
 0x00, 0x42, 0x4E, 0x7E, 0x7E, 0x4E, 0x42, 0x00 };
