#define phones_width 8
#define phones_height 8
static unsigned char phones_bits[] = {
 0x3C, 0x42, 0x81, 0x81, 0xA5, 0xE7, 0xE7, 0x66 };
