#define plug_width 8
#define plug_height 8
static unsigned char plug_bits[] = {
 0x03, 0x0F, 0x1E, 0x3E, 0x3C, 0x58, 0xA0, 0xC0 };
