#define rwd_width 8
#define rwd_height 8
static unsigned char rwd_bits[] = {
 0x00, 0x48, 0x6C, 0x7E, 0x7E, 0x6C, 0x48, 0x00 };
