#define shroom_width 8
#define shroom_height 8
static unsigned char shroom_bits[] = {
 0x3C, 0x42, 0x81, 0x81, 0xFF, 0x3C, 0x3C, 0x3C };
