#define temp_width 8
#define temp_height 8
static unsigned char temp_bits[] = {
 0xC8, 0xE0, 0x72, 0x28, 0x16, 0x09, 0x09, 0x06 };
