#define ac_width 8
#define ac_height 8
static unsigned char ac_bits[] = {
 0xFF, 0xF8, 0xF0, 0xF6, 0x6F, 0x0F, 0x1F, 0xFF };
