#define cat_width 8
#define cat_height 8
static unsigned char cat_bits[] = {
 0x81, 0xC3, 0xBD, 0xFF, 0x99, 0xFF, 0x7E, 0xBD };
