#define clock_width 8
#define clock_height 8
static unsigned char clock_bits[] = {
 0x3C, 0x5E, 0xEF, 0xF7, 0x87, 0xFF, 0x7E, 0x3C };
