#define empty_width 8
#define empty_height 8
static unsigned char empty_bits[] = {
 0x3C, 0x42, 0x81, 0x81, 0x81, 0x81, 0x42, 0x3C };
