#define eye_l_width 8
#define eye_l_height 8
static unsigned char eye_l_bits[] = {
 0x00, 0x00, 0x1B, 0x02, 0x02, 0x84, 0xF9, 0x02 };
