#define fs_01_width 8
#define fs_01_height 8
static unsigned char fs_01_bits[] = {
 0x46, 0x99, 0xBC, 0x66, 0x66, 0x3D, 0x99, 0x62 };
