#define half_width 8
#define half_height 8
static unsigned char half_bits[] = {
 0x3C, 0x4E, 0x8F, 0x8F, 0x8F, 0x8F, 0x4E, 0x3C };
