#define info_width 8
#define info_height 8
static unsigned char info_bits[] = {
 0x38, 0x38, 0x00, 0x3C, 0x38, 0x38, 0x38, 0x7C };
