#define net_down_01_width 8
#define net_down_01_height 8
static unsigned char net_down_01_bits[] = {
 0x1E, 0x3C, 0x3C, 0x3C, 0xFF, 0x7E, 0x3C, 0x18 };
