#define play_width 8
#define play_height 8
static unsigned char play_bits[] = {
 0x00, 0x06, 0x1E, 0x7E, 0x7E, 0x1E, 0x06, 0x00 };
