#define prev_width 8
#define prev_height 8
static unsigned char prev_bits[] = {
 0x00, 0x42, 0x72, 0x7E, 0x7E, 0x72, 0x42, 0x00 };
