#define test_width 8
#define test_height 8
static unsigned char test_bits[] = {
 0x0E, 0x13, 0x21, 0x41, 0x82, 0x84, 0xC8, 0x70 };
