#define usb_02_width 8
#define usb_02_height 8
static unsigned char usb_02_bits[] = {
 0x10, 0x50, 0x54, 0x54, 0x34, 0x18, 0x10, 0x10 };
